<svg version="1.1" id="ui-ux_svg__Layer_1" xmlns="http://www.w3.org/2000/svg" x="0" y="0" viewBox="80 320 840 350" xml:space="preserve"><style>.ui-ux_svg__st2{fill:#fff}.ui-ux_svg__st3{fill:#444e59}.ui-ux_svg__st4{fill:#bbbfc2}.ui-ux_svg__st6{opacity:.4;fill:#848484}.ui-ux_svg__st7{fill:none;stroke:#444e59;stroke-width:4;stroke-linecap:round;stroke-linejoin:round;stroke-miterlimit:10}.ui-ux_svg__st8{opacity:.32;fill:#848484}.ui-ux_svg__st11{fill:#6567c3}.ui-ux_svg__st12,.ui-ux_svg__st13{opacity:.2;fill:#444e59}.ui-ux_svg__st13{fill:none;stroke:#444e59;stroke-width:4;stroke-linecap:round;stroke-linejoin:round;stroke-miterlimit:10}.ui-ux_svg__st16{fill:#f09f54}.ui-ux_svg__st17{fill:#ed8b3b}.ui-ux_svg__st19{fill:#8d91db}.ui-ux_svg__st21{opacity:.3;fill:none;stroke:#444e59;stroke-width:4;stroke-linecap:round;stroke-linejoin:round;stroke-miterlimit:10}.ui-ux_svg__st26,.ui-ux_svg__st27{stroke-width:2}.ui-ux_svg__st26{fill:none;stroke:#444e59;stroke-linejoin:round}.ui-ux_svg__st27{stroke-dasharray:2.858,1.9053}.ui-ux_svg__st27,.ui-ux_svg__st28,.ui-ux_svg__st29{fill:none;stroke:#444e59;stroke-linejoin:round}.ui-ux_svg__st28{stroke-width:2;stroke-dasharray:3.0046,2.003}.ui-ux_svg__st29{stroke-miterlimit:10}</style><path class="ui-ux_svg__st2" d="M415.5 822.5h7.3v22.6c0 5 2.7 7.6 7.4 7.6s7.4-2.6 7.4-7.6v-22.6h7.4V845c0 9.6-6.9 14.3-14.9 14.3s-14.6-4.7-14.6-14.3v-22.5zm41.8 0h7.3V859h-7.3v-36.5zm32.2-13h7.2l-14.1 58.9h-7.2l14.1-58.9zm18 13h7.3v22.6c0 5 2.7 7.6 7.4 7.6s7.4-2.6 7.4-7.6v-22.6h7.4V845c0 9.6-6.9 14.3-14.9 14.3s-14.6-4.7-14.6-14.3v-22.5zm55.7 24.2L556 859h-8.3l11.5-18.4-11.6-18.1h8.4l7.9 12.2 7.1-12.2h8.3l-11.4 18.3 11.6 18.1h-8.4l-7.9-12.2z"/><path id="ui-ux_svg__XMLID_1313_" class="ui-ux_svg__st3" d="M909.8 666.3H95.7c-5 0-9-4-9-9s4-9 9-9h814.2c5 0 9 4 9 9-.1 5-4.1 9-9.1 9z"/><g id="ui-ux_svg__XMLID_24_"><path id="ui-ux_svg__XMLID_6_" class="ui-ux_svg__st3" d="M407.4 647.8h140.8v8.4H407.4z"/><g id="ui-ux_svg__XMLID_104_"><path id="ui-ux_svg__XMLID_76_" class="ui-ux_svg__st4" d="M646 592.9H313.8c-6.6 0-12-5.4-12-12V358.4c0-6.6 5.4-12 12-12H646c6.6 0 12 5.4 12 12v222.4c0 6.7-5.3 12.1-12 12.1z"/><path id="ui-ux_svg__XMLID_80_" transform="rotate(90 480.604 459.783)" fill="#28a8e0" d="M389.8 303.5h181.7v312.6H389.8z"/><path id="ui-ux_svg__XMLID_18_" class="ui-ux_svg__st6" d="M646.8 592.9h-52.1v-94.8c0-7.6 6.1-13.7 13.7-13.7h38.4v108.5z"/><path id="ui-ux_svg__XMLID_107_" class="ui-ux_svg__st6" d="M327.1 501.3h-25.3V576c0 9.3 8 16.9 17.4 16.9h29.1v-70c-.1-11.7-9.6-21.6-21.2-21.6z"/><path id="ui-ux_svg__XMLID_5_" class="ui-ux_svg__st7" d="M647 592.9H314.2c-6.6 0-12-5.4-12-12V358.4c0-6.6 5.4-12 12-12H647c6.6 0 12 5.4 12 12v222.4c0 6.7-5.4 12.1-12 12.1z"/><path id="ui-ux_svg__XMLID_7_" transform="rotate(90 480.604 459.78)" class="ui-ux_svg__st7" d="M389.8 303.9h181.7v311.7H389.8z"/></g><path id="ui-ux_svg__XMLID_179_" class="ui-ux_svg__st8" d="M575.9 541.9H404.1c-3.9 0-7-3.2-7-7V412.3c0-3.9 3.2-7 7-7h171.8c3.9 0 7 3.2 7 7v122.5c0 3.9-3.1 7.1-7 7.1z"/><path id="ui-ux_svg__XMLID_134_" d="M567.9 535.1H396.1c-3.9 0-7-3.2-7-7V405.6c0-3.9 3.2-7 7-7h171.8c3.9 0 7 3.2 7 7v122.5c.1 3.9-3.1 7-7 7z" fill="#afb1b2"/><path id="ui-ux_svg__XMLID_137_" class="ui-ux_svg__st7" d="M567.9 535.1H396.1c-3.9 0-7-3.2-7-7V405.6c0-3.9 3.2-7 7-7h171.8c3.9 0 7 3.2 7 7v122.5c.1 3.9-3.1 7-7 7z"/><path id="ui-ux_svg__XMLID_96_" fill="#aeaeaf" d="M522.5 647.8h-83.8l10.4-54.9h63z"/><path id="ui-ux_svg__XMLID_99_" class="ui-ux_svg__st8" d="M514.9 608.4l-2.8-15.5h-63l-2.8 15.5z"/><path id="ui-ux_svg__XMLID_3_" class="ui-ux_svg__st7" d="M522.5 647.8h-83.8l10.4-54.9h63z"/><path id="ui-ux_svg__XMLID_8_" class="ui-ux_svg__st7" d="M407.4 647.8h140.8v8.4H407.4z"/><circle id="ui-ux_svg__XMLID_9_" class="ui-ux_svg__st3" cx="480.1" cy="567.7" r="6.2"/><path id="ui-ux_svg__XMLID_133_" class="ui-ux_svg__st2" d="M553.8 522.5H382c-3.9 0-7-3.2-7-7V392.9c0-3.9 3.2-7 7-7h171.8c3.9 0 7 3.2 7 7v122.5c.1 3.9-3.1 7.1-7 7.1z"/><path id="ui-ux_svg__XMLID_25_" class="ui-ux_svg__st7" d="M553.8 522.5H382c-3.9 0-7-3.2-7-7V392.9c0-3.9 3.2-7 7-7h171.8c3.9 0 7 3.2 7 7v122.5c.1 3.9-3.1 7.1-7 7.1z"/><path id="ui-ux_svg__XMLID_105_" class="ui-ux_svg__st4" d="M560.9 407H375v-13.8c0-4 3.3-7.4 7.4-7.4H554c3.8 0 6.9 3.1 6.9 6.9V407z"/><path id="ui-ux_svg__XMLID_26_" class="ui-ux_svg__st7" d="M560.9 407H375v-13.8c0-4 3.3-7.4 7.4-7.4H554c3.8 0 6.9 3.1 6.9 6.9V407z"/><g id="ui-ux_svg__XMLID_108_"><circle id="ui-ux_svg__XMLID_106_" class="ui-ux_svg__st3" cx="392.9" cy="396.5" r="3.3"/><circle id="ui-ux_svg__XMLID_109_" class="ui-ux_svg__st3" cx="403.8" cy="396.5" r="3.3"/><circle id="ui-ux_svg__XMLID_120_" class="ui-ux_svg__st3" cx="414.6" cy="396.5" r="3.3"/></g><path id="ui-ux_svg__XMLID_122_" class="ui-ux_svg__st11" d="M543.4 443.6H391.1c-1.1 0-2-.9-2-2v-21.3c0-1.1.9-2 2-2h152.3c1.1 0 2 .9 2 2v21.3c0 1.1-.9 2-2 2z"/><g id="ui-ux_svg__XMLID_123_"><path id="ui-ux_svg__XMLID_124_" class="ui-ux_svg__st12" d="M434.9 470.3H391c-1.1 0-2-.9-2-2v-11.5c0-1.1.9-2 2-2h43.9c1.1 0 2 .9 2 2v11.5c0 1.1-.8 2-2 2z"/><path id="ui-ux_svg__XMLID_125_" class="ui-ux_svg__st13" d="M396.1 481.6h35.2"/><path id="ui-ux_svg__XMLID_128_" class="ui-ux_svg__st13" d="M396.1 492.9h35.2"/></g><g id="ui-ux_svg__XMLID_127_"><path id="ui-ux_svg__XMLID_131_" class="ui-ux_svg__st12" d="M489.9 470.3H446c-1.1 0-2-.9-2-2v-11.5c0-1.1.9-2 2-2h43.9c1.1 0 2 .9 2 2v11.5c0 1.1-.9 2-2 2z"/><path id="ui-ux_svg__XMLID_130_" class="ui-ux_svg__st13" d="M451 481.6h33.8"/><path id="ui-ux_svg__XMLID_129_" class="ui-ux_svg__st13" d="M451 492.9h33.8"/></g><g id="ui-ux_svg__XMLID_132_" opacity=".2"><path id="ui-ux_svg__XMLID_135_" class="ui-ux_svg__st3" d="M544.8 494.3h-43.9c-1.1 0-2-.9-2-2v-35.4c0-1.1.9-2 2-2h43.9c1.1 0 2 .9 2 2v35.4c0 1.1-.9 2-2 2z"/></g><g id="ui-ux_svg__XMLID_126_" opacity=".09"><path id="ui-ux_svg__XMLID_136_" class="ui-ux_svg__st3" d="M543.4 505.6h-41.8c-1.6 0-2.8-1.3-2.8-2.8s1.3-2.8 2.8-2.8h41.8c1.6 0 2.8 1.3 2.8 2.8s-1.3 2.8-2.8 2.8z"/></g></g><g id="ui-ux_svg__XMLID_23_"><g id="ui-ux_svg__XMLID_12_"><path id="ui-ux_svg__XMLID_71_" class="ui-ux_svg__st2" d="M229.2 613.4h-80.6c-1 0-1.9.3-2.6 1l-19.5 17c-1.8 1.6-1.8 4.4 0 5.9l19.5 17.3c.7.6 1.6 1.2 2.6 1.2h80.6c4.6 0 8.4-4.2 8.4-8.8v-25.5c-.1-4.4-3.8-8.1-8.4-8.1zm-82.8 25.9c-2.7 0-5-2.2-5-5s2.2-5 5-5 5 2.2 5 5-2.2 5-5 5z"/><path id="ui-ux_svg__XMLID_70_" class="ui-ux_svg__st16" d="M167.1 613.4h23.5v42.5h-23.5z"/><path id="ui-ux_svg__XMLID_69_" class="ui-ux_svg__st17" d="M190.6 613.4h23.5v42.5h-23.5z"/><path id="ui-ux_svg__XMLID_58_" d="M227.1 655.9h-13v-42.5h13.4c5.5 0 10.1 4.5 10.1 10.1v22c-.1 5.7-4.8 10.4-10.5 10.4z" fill="#ff6c37"/><path id="ui-ux_svg__XMLID_117_" class="ui-ux_svg__st6" d="M231.4 615.5c-.4-.1-.8-.1-1.2-.1h-80.6c-1 0-1.9.3-2.6 1l-19.5 17c-1.8 1.6-1.8 4.4 0 5.9l12.2 10.7 13.2 3.3c.6.2 1.3.2 2 .2 1.3 0 2.5-.3 3.7-.9l71.8-36.6c.3-.1.7-.3 1-.5zm-84 25.8c-2.7 0-5-2.2-5-5s2.2-5 5-5 5 2.2 5 5-2.2 5-5 5z"/><path id="ui-ux_svg__XMLID_29_" class="ui-ux_svg__st7" d="M229.2 613.4h-80.6c-1 0-1.9.3-2.6 1l-19.5 17c-1.8 1.6-1.8 4.4 0 5.9l19.5 17.3c.7.6 1.6 1.2 2.6 1.2h80.6c4.6 0 8.4-4.2 8.4-8.8v-25.5c-.1-4.4-3.8-8.1-8.4-8.1zm-82.8 25.9c-2.7 0-5-2.2-5-5s2.2-5 5-5 5 2.2 5 5-2.2 5-5 5z"/><path id="ui-ux_svg__XMLID_17_" class="ui-ux_svg__st7" d="M167.1 613.4h23.5v42.5h-23.5z"/><path id="ui-ux_svg__XMLID_21_" class="ui-ux_svg__st7" d="M190.6 613.4h23.5v42.5h-23.5z"/><path id="ui-ux_svg__XMLID_22_" class="ui-ux_svg__st7" d="M227.1 655.9h-13v-42.5h13.4c5.5 0 10.1 4.5 10.1 10.1v22c-.1 5.7-4.8 10.4-10.5 10.4z"/></g><g id="ui-ux_svg__XMLID_20_"><path id="ui-ux_svg__XMLID_74_" class="ui-ux_svg__st2" d="M208.4 573l-71.8 36.6c-.9.4-1.5 1.2-1.9 2.1l-9.6 24c-.9 2.2.4 4.7 2.7 5.3l25.1 6.4c.9.2 1.9.1 2.8-.3l71.8-36.6c4.1-2.1 5.7-7.1 3.6-11.1l-11.6-22.7c-2.1-4.2-7.1-5.8-11.1-3.7z"/><path id="ui-ux_svg__XMLID_77_" transform="rotate(-27.031 193.882 603.896)" class="ui-ux_svg__st19" d="M182.2 582.9h23.5v42h-23.5z"/><path id="ui-ux_svg__XMLID_33_" class="ui-ux_svg__st7" d="M208.4 573l-71.8 36.6c-.9.4-1.5 1.2-1.9 2.1l-9.6 24c-.9 2.2.4 4.7 2.7 5.3l25.1 6.4c.9.2 1.9.1 2.8-.3l71.8-36.6c4.1-2.1 5.7-7.1 3.6-11.1l-11.6-22.7c-2.1-4.2-7.1-5.8-11.1-3.7z"/><circle id="ui-ux_svg__XMLID_34_" class="ui-ux_svg__st3" cx="144.2" cy="629.3" r="5.8"/><path id="ui-ux_svg__XMLID_79_" fill="#beccd5" stroke="#444e59" stroke-width="4" stroke-linecap="round" stroke-linejoin="round" stroke-miterlimit="10" d="M152.963 601.266l20.934-10.68 19.089 37.413-20.934 10.68z"/><path id="ui-ux_svg__XMLID_32_" transform="rotate(-27.031 172.965 614.568)" class="ui-ux_svg__st7" d="M161.2 593.6h23.5v42h-23.5z"/><path id="ui-ux_svg__XMLID_31_" transform="rotate(-27.031 193.882 603.896)" class="ui-ux_svg__st7" d="M182.2 582.9h23.5v42h-23.5z"/><path id="ui-ux_svg__XMLID_30_" class="ui-ux_svg__st11" d="M225.9 611.2l-12 6.1-19.1-37.4 12-6.1c4.9-2.5 10.9-.6 13.5 4.4l10 19.6c2.5 4.9.5 10.9-4.4 13.4z"/><path id="ui-ux_svg__XMLID_78_" class="ui-ux_svg__st7" d="M225.9 611.2l-12 6.1-19.1-37.4 12-6.1c4.9-2.5 10.9-.6 13.5 4.4l10 19.6c2.5 4.9.5 10.9-4.4 13.4z"/></g></g><g id="ui-ux_svg__XMLID_90_"><path id="ui-ux_svg__XMLID_102_" class="ui-ux_svg__st2" d="M327 656.2h-67.3c-5.5 0-10-4.5-10-10V511.3c0-5.5 4.5-10 10-10H327c5.5 0 10 4.5 10 10v134.9c0 5.6-4.5 10-10 10z"/><path id="ui-ux_svg__XMLID_83_" class="ui-ux_svg__st11" d="M338.4 547.8h-88.7v-36.7c0-5.4 4.4-9.8 9.8-9.8H328c5.7 0 10.3 4.7 10.3 10.3v36.2z"/><path id="ui-ux_svg__XMLID_10_" class="ui-ux_svg__st7" d="M327 656.2h-67.3c-5.5 0-10-4.5-10-10V511.3c0-5.5 4.5-10 10-10H327c5.5 0 10 4.5 10 10v134.9c0 5.6-4.5 10-10 10z"/><path id="ui-ux_svg__XMLID_82_" class="ui-ux_svg__st4" d="M327.1 656.2H260c-5.7 0-10.4-4.7-10.4-10.4v-19.2H337v19.7c0 5.5-4.5 9.9-9.9 9.9z"/><path id="ui-ux_svg__XMLID_81_" class="ui-ux_svg__st7" d="M327.3 656.2H260c-5.7 0-10.4-4.7-10.4-10.4v-19.2H337v19.9c0 5.4-4.4 9.7-9.7 9.7z"/><circle id="ui-ux_svg__XMLID_84_" class="ui-ux_svg__st3" cx="294" cy="640.8" r="5"/><path id="ui-ux_svg__XMLID_86_" class="ui-ux_svg__st21" d="M269.4 563.3h49.3"/><path id="ui-ux_svg__XMLID_87_" class="ui-ux_svg__st21" d="M279.2 578.8h31"/><path id="ui-ux_svg__XMLID_88_" class="ui-ux_svg__st21" d="M269.4 592.9h49.3"/><circle id="ui-ux_svg__XMLID_85_" cx="294" cy="528.1" r="11.2" opacity=".62" fill="#fff"/><path id="ui-ux_svg__XMLID_89_" class="ui-ux_svg__st17" d="M310.2 608.4c0 3.1-2.5 5.6-5.6 5.6h-21.1c-3.1 0-5.6-2.5-5.6-5.6 0-3.1 2.5-5.6 5.6-5.6h21.1c3.1-.1 5.6 2.4 5.6 5.6z"/></g><g id="ui-ux_svg__XMLID_111_"><path id="ui-ux_svg__XMLID_100_" class="ui-ux_svg__st4" d="M848.2 637.9H605.9V492.3c0-4.3 3.5-7.8 7.8-7.8h226.8c4.2 0 7.6 3.4 7.6 7.6v145.8z"/><path id="ui-ux_svg__XMLID_11_" class="ui-ux_svg__st7" d="M848.8 638.2H606.6v-146c0-4.4 3.6-8 8-8h226.2c4.4 0 8 3.6 8 8v146z"/><path id="ui-ux_svg__XMLID_101_" transform="rotate(90 727.75 561.177)" opacity=".71" fill="#5d5d5d" d="M663.7 453.4h128.2v215.5H663.7z"/><path id="ui-ux_svg__XMLID_183_" class="ui-ux_svg__st8" d="M672.7 600.9h-18.6c-1.1 0-2-.9-2-2v-63.7c0-1.1.9-2 2-2h18.6c1.1 0 2 .9 2 2V599c0 1-.9 1.9-2 1.9z"/><path id="ui-ux_svg__XMLID_178_" class="ui-ux_svg__st8" d="M807 613.8H699.6c-2.2 0-4-1.8-4-4v-82.1c0-2.2 1.8-4 4-4H807c2.2 0 4 1.8 4 4v82.1c0 2.2-1.7 4-4 4z"/><path id="ui-ux_svg__XMLID_103_" transform="rotate(90 727.659 561.179)" class="ui-ux_svg__st7" d="M664.1 453.5h127.1v215.3H664.1z"/><path id="ui-ux_svg__XMLID_110_" class="ui-ux_svg__st2" d="M875.2 638.2H580.1v9.4c0 4.4 3.6 8 8 8h279.1c4.4 0 8-3.6 8-8v-9.4z"/><path id="ui-ux_svg__XMLID_206_" d="M591.4 656.2H864c5.5 0 10-4.2 11-9.9H580.3c1 5.7 5.6 9.9 11.1 9.9z" opacity=".8" fill="#bbbfc2"/><path id="ui-ux_svg__XMLID_15_" class="ui-ux_svg__st7" d="M875.2 638.2H580.1v9.4c0 4.4 3.6 8 8 8h279.1c4.4 0 8-3.6 8-8v-9.4z"/><path id="ui-ux_svg__XMLID_201_" class="ui-ux_svg__st16" d="M646.8 528.1h22.5v22.5h-22.5z"/><path id="ui-ux_svg__XMLID_138_" class="ui-ux_svg__st7" d="M647.2 528.3h22.5v22.5h-22.5z"/><path id="ui-ux_svg__XMLID_180_" class="ui-ux_svg__st7" d="M647.2 528.3h22.5v22.5h-22.5z"/><path id="ui-ux_svg__XMLID_156_" class="ui-ux_svg__st19" d="M646.8 550.6h22.5v22.5h-22.5z"/><path id="ui-ux_svg__XMLID_140_" class="ui-ux_svg__st7" d="M647.2 550.9h22.5v22.5h-22.5z"/><path id="ui-ux_svg__XMLID_202_" class="ui-ux_svg__st11" d="M646.8 573.1h22.5v22.5h-22.5z"/><path id="ui-ux_svg__XMLID_143_" class="ui-ux_svg__st7" d="M647.2 573.4h22.5v22.5h-22.5z"/><path id="ui-ux_svg__XMLID_115_" class="ui-ux_svg__st2" d="M800.5 606.9H693c-2.2 0-4-1.8-4-4v-82.1c0-2.2 1.8-4 4-4h107.5c2.2 0 4 1.8 4 4v82.1c0 2.3-1.8 4-4 4z"/><path id="ui-ux_svg__XMLID_139_" class="ui-ux_svg__st7" d="M800.5 606.9H693c-2.2 0-4-1.8-4-4v-82.1c0-2.2 1.8-4 4-4h107.5c2.2 0 4 1.8 4 4v82.1c0 2.3-1.8 4-4 4z"/><g id="ui-ux_svg__XMLID_147_" opacity=".3"><g id="ui-ux_svg__XMLID_205_"><path id="ui-ux_svg__XMLID_419_" class="ui-ux_svg__st26" d="M770.7 583.2v1.5h-1.5"/><path id="ui-ux_svg__XMLID_418_" class="ui-ux_svg__st27" d="M767.3 584.7h-41.9"/><path id="ui-ux_svg__XMLID_417_" class="ui-ux_svg__st26" d="M724.4 584.7h-1.5v-1.5"/><path id="ui-ux_svg__XMLID_416_" class="ui-ux_svg__st28" d="M722.9 581.1v-39"/><path id="ui-ux_svg__XMLID_415_" class="ui-ux_svg__st26" d="M722.9 541.1v-1.5h1.5"/><path id="ui-ux_svg__XMLID_214_" class="ui-ux_svg__st27" d="M726.3 539.6h41.9"/><path id="ui-ux_svg__XMLID_213_" class="ui-ux_svg__st26" d="M769.2 539.6h1.5v1.5"/><path id="ui-ux_svg__XMLID_211_" class="ui-ux_svg__st28" d="M770.7 543.1v39.1"/></g></g><g id="ui-ux_svg__XMLID_155_"><path id="ui-ux_svg__XMLID_154_" class="ui-ux_svg__st2" d="M719.6 536.1h7.1v7.1h-7.1z"/><path id="ui-ux_svg__XMLID_153_" class="ui-ux_svg__st29" d="M719.3 535.8h7v7h-7z"/></g><g id="ui-ux_svg__XMLID_157_"><path id="ui-ux_svg__XMLID_159_" class="ui-ux_svg__st2" d="M719.6 581.1h7.1v7.1h-7.1z"/><path id="ui-ux_svg__XMLID_158_" class="ui-ux_svg__st29" d="M719.3 580.9h7v7h-7z"/></g><g id="ui-ux_svg__XMLID_162_"><path id="ui-ux_svg__XMLID_166_" class="ui-ux_svg__st2" d="M767.2 536.1h7.1v7.1h-7.1z"/><path id="ui-ux_svg__XMLID_164_" class="ui-ux_svg__st29" d="M767.2 535.8h7v7h-7z"/></g><g id="ui-ux_svg__XMLID_196_"><path id="ui-ux_svg__XMLID_198_" class="ui-ux_svg__st2" d="M767.2 581.1h7.1v7.1h-7.1z"/><path id="ui-ux_svg__XMLID_197_" class="ui-ux_svg__st29" d="M767.2 580.9h7v7h-7z"/></g><g id="ui-ux_svg__XMLID_229_"><g id="ui-ux_svg__XMLID_225_"><path id="ui-ux_svg__XMLID_230_" class="ui-ux_svg__st2" d="M658.5 562.5l7.1 15.2 6.9 3.6 4.8-4.8-3.5-7z"/><path id="ui-ux_svg__XMLID_227_" class="ui-ux_svg__st29" d="M658.5 562.5l7.1 15.2 6.9 3.6 4.8-4.8-3.5-7z"/><circle id="ui-ux_svg__XMLID_224_" class="ui-ux_svg__st3" cx="667.5" cy="571.1" r="1.9"/><path id="ui-ux_svg__XMLID_226_" fill="none" stroke="#444e59" stroke-linecap="round" stroke-linejoin="round" stroke-miterlimit="10" d="M658.5 562.5l7.9 7.9"/></g><path id="ui-ux_svg__XMLID_231_" transform="rotate(-45.001 676.688 580.604)" class="ui-ux_svg__st2" d="M673.3 578.1h6.8v4.9h-6.8z"/><path id="ui-ux_svg__XMLID_228_" transform="rotate(-45.001 676.688 580.604)" class="ui-ux_svg__st29" d="M673.3 578.1h6.8v4.9h-6.8z"/></g></g></svg>